<svg data-name="Layer 1" xmlns="http://www.w3.org/2000/svg" width="433.44pt" height="349.2pt" viewBox="0 0 433.44 349.2"><ellipse id="shape0" transform="matrix(0.999999937080522 0 0 0.999999937080522 120.169731613563 78.752756660658)" rx="96.5502743626281" ry="95.8472383842594" cx="96.5502743626281" cy="95.8472383842594" fill="#78ada7" fill-rule="evenodd" stroke="#78ada7" stroke-width="56.16" stroke-linecap="square" stroke-linejoin="bevel"/>
    <ellipse id="shape01" transform="matrix(0.999999972037654 0 0 0.999999972037654 133.380004975418 91.4399982284832)" rx="83.339998476964" ry="83.1599992146399" cx="83.339998476964" cy="83.1599992146399" fill="#082925" fill-rule="evenodd" stroke="#082925" stroke-width="56.16" stroke-linecap="square" stroke-linejoin="bevel"/><path id="shape1" transform="matrix(0.999999972037654 0 0 0.999999972037654 174.590249930054 93.574200249458)" fill="none" stroke="#78ada7" stroke-width="20.9808" stroke-linecap="square" stroke-linejoin="bevel" d="M91.8098 24.5058C91.8098 1.45505 8.1961 -20.5586 0.369761 34.2258C-6.29983 80.9129 79.3678 64.3343 87.1298 110.906C95.2177 159.434 19.9776 172.441 1.44976 135.386"/><path id="shape2" transform="matrix(0.999999972037654 0 0 0.999999972037654 216.720001122001 73.0800015112017)" fill="none" stroke="#d8fffa" stroke-width="15.084" stroke-linecap="square" stroke-linejoin="miter" stroke-miterlimit="2" d="M0 0L0 202.68"/><ellipse id="shape01" transform="matrix(0.0452827785965855 -0.229712425759519 0.229712425759519 0.0452827785965855 28.3380744713098 81.7651215326044)" rx="96.5502743626281" ry="95.8472383842594" cx="96.5502743626281" cy="95.8472383842594" fill="#78ada7" fill-rule="evenodd" stroke="#78ada7" stroke-width="56.16" stroke-linecap="square" stroke-linejoin="bevel"/><ellipse id="shape011" transform="matrix(0.0452827801795415 -0.229712433789607 0.229712433789607 0.0452827801795415 31.850689612909 79.3050709898383)" rx="83.339998476964" ry="83.1599992146399" cx="83.339998476964" cy="83.1599992146399" fill="#082925" fill-rule="evenodd" stroke="#082925" stroke-width="56.16" stroke-linecap="square" stroke-linejoin="bevel"/><path id="shape11" transform="matrix(0.0452827801795415 -0.229712433789607 0.229712433789607 0.0452827801795415 34.2070568826612 69.935207663215)" fill="none" stroke="#78ada7" stroke-width="20.9808" stroke-linecap="square" stroke-linejoin="bevel" d="M91.8098 24.5058C91.8098 1.45505 8.1961 -20.5586 0.369761 34.2258C-6.29983 80.9129 79.3678 64.3343 87.1298 110.906C95.2177 159.434 19.9776 172.441 1.44976 135.386"/><path id="shape21" transform="matrix(0.0452827801795415 -0.229712433789607 0.229712433789607 0.0452827801795415 31.4070367958771 59.3294453889796)" fill="none" stroke="#d8fffa" stroke-width="15.084" stroke-linecap="square" stroke-linejoin="miter" stroke-miterlimit="2" d="M0 0L0 202.68"/><ellipse id="shape02" transform="matrix(-0.0127787253721623 -0.143247712908122 0.143247712908122 -0.0127787253721623 55.6922737128889 317.224764398379)" rx="96.5502743626281" ry="95.8472383842594" cx="96.5502743626281" cy="95.8472383842594" fill="#78ada7" fill-rule="evenodd" stroke="#78ada7" stroke-width="56.16" stroke-linecap="square" stroke-linejoin="bevel"/><ellipse id="shape012" transform="matrix(-0.0127787258188699 -0.143247717915652 0.143247717915652 -0.0127787258188699 57.3408816989396 315.17029604741)" rx="83.339998476964" ry="83.1599992146399" cx="83.339998476964" cy="83.1599992146399" fill="#082925" fill-rule="evenodd" stroke="#082925" stroke-width="56.16" stroke-linecap="square" stroke-linejoin="bevel"/><path id="shape12" transform="matrix(-0.0127787258188699 -0.143247717915652 0.143247717915652 -0.0127787258188699 57.119986840635 309.239749954614)" fill="none" stroke="#78ada7" stroke-width="20.9808" stroke-linecap="square" stroke-linejoin="bevel" d="M91.8098 24.5058C91.8098 1.45505 8.1961 -20.5586 0.369761 34.2258C-6.29983 80.9129 79.3678 64.3343 87.1298 110.906C95.2177 159.434 19.9776 172.441 1.44976 135.386"/><path id="shape22" transform="matrix(-0.0127787258188699 -0.143247717915652 0.143247717915652 -0.0127787258188699 53.6458750044264 303.466648825137)" fill="none" stroke="#d8fffa" stroke-width="15.084" stroke-linecap="square" stroke-linejoin="miter" stroke-miterlimit="2" d="M0 0L0 202.68"/><ellipse id="shape03" transform="matrix(0.119522603214551 0.112796221297305 -0.112796221297305 0.119522603214551 329.412654642065 19.3348110423761)" rx="96.5502743626281" ry="95.8472383842594" cx="96.5502743626281" cy="95.8472383842594" fill="#78ada7" fill-rule="evenodd" stroke="#78ada7" stroke-width="56.16" stroke-linecap="square" stroke-linejoin="bevel"/><ellipse id="shape013" transform="matrix(0.119522607392719 0.112796225240338 -0.112796225240338 0.119522607392719 329.560508005216 22.3412922888624)" rx="83.339998476964" ry="83.1599992146399" cx="83.339998476964" cy="83.1599992146399" fill="#082925" fill-rule="evenodd" stroke="#082925" stroke-width="56.16" stroke-linecap="square" stroke-linejoin="bevel"/><path id="shape13" transform="matrix(0.119522607392719 0.112796225240338 -0.112796225240338 0.119522607392719 334.245334132619 27.2447378883365)" fill="none" stroke="#78ada7" stroke-width="20.9808" stroke-linecap="square" stroke-linejoin="bevel" d="M91.8098 24.5058C91.8098 1.45505 8.1961 -20.5586 0.369761 34.2258C-6.29983 80.9129 79.3678 64.3343 87.1298 110.906C95.2177 159.434 19.9776 172.441 1.44976 135.386"/><path id="shape23" transform="matrix(0.119522607392719 0.112796225240338 -0.112796225240338 0.119522607392719 341.592460306331 29.5472947878667)" fill="none" stroke="#d8fffa" stroke-width="15.084" stroke-linecap="square" stroke-linejoin="miter" stroke-miterlimit="2" d="M0 0L0 202.68"/><ellipse id="shape04" transform="matrix(-0.0451156557313626 0.0854237869159723 -0.0854237869159723 -0.0451156557313626 376.975689822318 286.376964310409)" rx="96.5502743626281" ry="95.8472383842594" cx="96.5502743626281" cy="95.8472383842594" fill="#78ada7" fill-rule="evenodd" stroke="#78ada7" stroke-width="56.16" stroke-linecap="square" stroke-linejoin="bevel"/><ellipse id="shape014" transform="matrix(-0.0451156573084768 0.0854237899021431 -0.0854237899021431 -0.0451156573084768 375.295907351276 286.933042699407)" rx="83.339998476964" ry="83.1599992146399" cx="83.339998476964" cy="83.1599992146399" fill="#082925" fill-rule="evenodd" stroke="#082925" stroke-width="56.16" stroke-linecap="square" stroke-linejoin="bevel"/><path id="shape14" transform="matrix(-0.0451156573084768 0.0854237899021431 -0.0854237899021431 -0.0451156573084768 373.254368380169 290.357092174968)" fill="none" stroke="#78ada7" stroke-width="20.9808" stroke-linecap="square" stroke-linejoin="bevel" d="M91.8098 24.5058C91.8098 1.45505 8.1961 -20.5586 0.369761 34.2258C-6.29983 80.9129 79.3678 64.3343 87.1298 110.906C95.2177 159.434 19.9776 172.441 1.44976 135.386"/><path id="shape24" transform="matrix(-0.0451156573084768 0.0854237899021431 -0.0854237899021431 -0.0451156573084768 373.104349085936 294.880584562992)" fill="none" stroke="#d8fffa" stroke-width="15.084" stroke-linecap="square" stroke-linejoin="miter" stroke-miterlimit="2" d="M0 0L0 202.68"/>
</svg>